<?xml version="1.0" encoding="UTF-8"?>
<svg xmlns="http://www.w3.org/2000/svg" xmlns:xlink="http://www.w3.org/1999/xlink" width="200pt" height="200pt" viewBox="0 0 200 200" version="1.1">
<g id="surface1">
<path style=" stroke:none;fill-rule:nonzero;fill:rgb(14.117647%,14.117647%,14.117647%);fill-opacity:1;" d="M 71.042969 72.621094 C 71.042969 59.523438 60.328125 48.808594 47.234375 48.808594 C 34.136719 48.808594 23.421875 59.523438 23.421875 72.621094 C 23.421875 85.714844 34.136719 96.429688 47.234375 96.429688 C 52.59375 96.429688 57.503906 94.644531 61.519531 91.664062 L 61.371094 118.15625 C 56.90625 119.496094 52.144531 120.238281 47.234375 120.238281 C 20.894531 120.238281 -0.386719 98.960938 -0.386719 72.621094 C -0.386719 46.28125 20.894531 25 47.234375 25 C 73.574219 25 94.851562 46.28125 94.851562 72.621094 L 94.851562 167.855469 L 71.042969 167.855469 Z M 71.042969 72.621094 "/>
<path style=" stroke:none;fill-rule:nonzero;fill:rgb(14.117647%,14.117647%,14.117647%);fill-opacity:1;" d="M 128.570312 120.238281 C 128.570312 133.335938 139.285156 144.046875 152.378906 144.046875 C 165.476562 144.046875 176.191406 133.335938 176.191406 120.238281 C 176.191406 107.144531 165.476562 96.429688 152.378906 96.429688 C 147.023438 96.429688 142.113281 98.214844 138.09375 101.191406 L 138.246094 74.703125 C 142.710938 73.363281 147.46875 72.621094 152.378906 72.621094 C 178.71875 72.621094 200 93.898438 200 120.238281 C 200 146.578125 178.71875 167.855469 152.378906 167.855469 C 126.039062 167.855469 104.761719 146.578125 104.761719 120.238281 L 104.761719 25 L 128.570312 25 Z M 128.570312 120.238281 "/>
</g>
</svg>
