<?xml version="1.0" encoding="UTF-8"?>
<svg xmlns="http://www.w3.org/2000/svg" xmlns:xlink="http://www.w3.org/1999/xlink" width="280pt" height="200pt" viewBox="0 0 280 200" version="1.1">
<g id="surface1">
<path style=" stroke:none;fill-rule:nonzero;fill:rgb(92.941176%,10.980392%,14.117647%);fill-opacity:1;" d="M 99.460938 66.667969 C 99.460938 48.332031 84.460938 33.332031 66.128906 33.332031 C 47.792969 33.332031 32.792969 48.332031 32.792969 66.667969 C 32.792969 85 47.792969 100 66.128906 100 C 73.628906 100 80.503906 97.5 86.128906 93.332031 L 85.917969 130.417969 C 79.667969 132.292969 73.003906 133.332031 66.128906 133.332031 C 29.253906 133.332031 -0.539062 103.542969 -0.539062 66.667969 C -0.539062 29.792969 29.253906 0 66.128906 0 C 103.003906 0 132.792969 29.792969 132.792969 66.667969 L 132.792969 200 L 99.460938 200 Z M 99.460938 66.667969 "/>
<path style=" stroke:none;fill-rule:nonzero;fill:rgb(0%,65.098039%,31.764706%);fill-opacity:1;" d="M 180 133.332031 C 180 151.667969 195 166.667969 213.332031 166.667969 C 231.667969 166.667969 246.667969 151.667969 246.667969 133.332031 C 246.667969 115 231.667969 100 213.332031 100 C 205.832031 100 198.957031 102.5 193.332031 106.667969 L 193.542969 69.582031 C 199.792969 67.707031 206.457031 66.667969 213.332031 66.667969 C 250.207031 66.667969 280 96.457031 280 133.332031 C 280 170.207031 250.207031 200 213.332031 200 C 176.457031 200 146.667969 170.207031 146.667969 133.332031 L 146.667969 0 L 180 0 Z M 180 133.332031 "/>
</g>
</svg>
